<?xml version="1.0" encoding="UTF-8" standalone="no"?>
<!-- Created with Inkscape (http://www.inkscape.org/) -->

<svg
   xmlns:dc="http://purl.org/dc/elements/1.1/"
   xmlns:cc="http://creativecommons.org/ns#"
   xmlns:rdf="http://www.w3.org/1999/02/22-rdf-syntax-ns#"
   xmlns:svg="http://www.w3.org/2000/svg"
   xmlns="http://www.w3.org/2000/svg"
   xmlns:sodipodi="http://sodipodi.sourceforge.net/DTD/sodipodi-0.dtd"
   xmlns:inkscape="http://www.inkscape.org/namespaces/inkscape"
   width="800"
   height="576"
   id="svg2"
   version="1.1"
   inkscape:version="0.48.2 r9819"
   sodipodi:docname="background.svg"
   inkscape:export-filename="C:\wamp\www\DownTheLine\assets\gfx\background.png"
   inkscape:export-xdpi="90"
   inkscape:export-ydpi="90">
  <defs
     id="defs4">
    <filter
       id="filter3881"
       inkscape:label="Noisy blur"
       inkscape:menu="Blurs"
       inkscape:menu-tooltip="Small-scale roughening and blurring to edges and content"
       x="-0.25"
       width="1.5"
       y="-0.25"
       height="1.5"
       color-interpolation-filters="sRGB">
      <feGaussianBlur
         id="feGaussianBlur3883"
         stdDeviation="5"
         result="result1" />
      <feTurbulence
         id="feTurbulence3885"
         numOctaves="1"
         seed="0"
         type="fractalNoise"
         baseFrequency="0.1"
         result="result2" />
      <feDisplacementMap
         in2="result2"
         id="feDisplacementMap3887"
         scale="5"
         yChannelSelector="G"
         xChannelSelector="R"
         result="result3"
         in="result1" />
      <feComposite
         in2="result3"
         id="feComposite3889"
         operator="atop" />
    </filter>
    <filter
       id="filter3891"
       inkscape:label="Noisy blur"
       inkscape:menu="Blurs"
       inkscape:menu-tooltip="Small-scale roughening and blurring to edges and content"
       x="-0.25"
       width="1.5"
       y="-0.25"
       height="1.5"
       color-interpolation-filters="sRGB">
      <feGaussianBlur
         id="feGaussianBlur3893"
         stdDeviation="5"
         result="result1" />
      <feTurbulence
         id="feTurbulence3895"
         numOctaves="1"
         seed="0"
         type="fractalNoise"
         baseFrequency="0.1"
         result="result2" />
      <feDisplacementMap
         in2="result2"
         id="feDisplacementMap3897"
         scale="5"
         yChannelSelector="G"
         xChannelSelector="R"
         result="result3"
         in="result1" />
      <feComposite
         in2="result3"
         id="feComposite3899"
         operator="atop" />
    </filter>
    <filter
       id="filter3901"
       inkscape:label="Noisy blur"
       inkscape:menu="Blurs"
       inkscape:menu-tooltip="Small-scale roughening and blurring to edges and content"
       x="-0.25"
       width="1.5"
       y="-0.25"
       height="1.5"
       color-interpolation-filters="sRGB">
      <feGaussianBlur
         id="feGaussianBlur3903"
         stdDeviation="5"
         result="result1" />
      <feTurbulence
         id="feTurbulence3905"
         numOctaves="1"
         seed="0"
         type="fractalNoise"
         baseFrequency="0.1"
         result="result2" />
      <feDisplacementMap
         in2="result2"
         id="feDisplacementMap3907"
         scale="5"
         yChannelSelector="G"
         xChannelSelector="R"
         result="result3"
         in="result1" />
      <feComposite
         in2="result3"
         id="feComposite3909"
         operator="atop" />
    </filter>
    <filter
       id="filter3911"
       inkscape:label="Noisy blur"
       inkscape:menu="Blurs"
       inkscape:menu-tooltip="Small-scale roughening and blurring to edges and content"
       x="-0.25"
       width="1.5"
       y="-0.25"
       height="1.5"
       color-interpolation-filters="sRGB">
      <feGaussianBlur
         id="feGaussianBlur3913"
         stdDeviation="5"
         result="result1" />
      <feTurbulence
         id="feTurbulence3915"
         numOctaves="1"
         seed="0"
         type="fractalNoise"
         baseFrequency="0.1"
         result="result2" />
      <feDisplacementMap
         in2="result2"
         id="feDisplacementMap3917"
         scale="5"
         yChannelSelector="G"
         xChannelSelector="R"
         result="result3"
         in="result1" />
      <feComposite
         in2="result3"
         id="feComposite3919"
         operator="atop" />
    </filter>
    <filter
       id="filter3921"
       inkscape:label="Noisy blur"
       inkscape:menu="Blurs"
       inkscape:menu-tooltip="Small-scale roughening and blurring to edges and content"
       x="-0.25"
       width="1.5"
       y="-0.25"
       height="1.5"
       color-interpolation-filters="sRGB">
      <feGaussianBlur
         id="feGaussianBlur3923"
         stdDeviation="5"
         result="result1" />
      <feTurbulence
         id="feTurbulence3925"
         numOctaves="1"
         seed="0"
         type="fractalNoise"
         baseFrequency="0.1"
         result="result2" />
      <feDisplacementMap
         in2="result2"
         id="feDisplacementMap3927"
         scale="5"
         yChannelSelector="G"
         xChannelSelector="R"
         result="result3"
         in="result1" />
      <feComposite
         in2="result3"
         id="feComposite3929"
         operator="atop" />
    </filter>
    <filter
       id="filter3931"
       inkscape:label="Noisy blur"
       inkscape:menu="Blurs"
       inkscape:menu-tooltip="Small-scale roughening and blurring to edges and content"
       x="-0.25"
       width="1.5"
       y="-0.25"
       height="1.5"
       color-interpolation-filters="sRGB">
      <feGaussianBlur
         id="feGaussianBlur3933"
         stdDeviation="5"
         result="result1" />
      <feTurbulence
         id="feTurbulence3935"
         numOctaves="1"
         seed="0"
         type="fractalNoise"
         baseFrequency="0.1"
         result="result2" />
      <feDisplacementMap
         in2="result2"
         id="feDisplacementMap3937"
         scale="5"
         yChannelSelector="G"
         xChannelSelector="R"
         result="result3"
         in="result1" />
      <feComposite
         in2="result3"
         id="feComposite3939"
         operator="atop" />
    </filter>
    <filter
       id="filter3941"
       inkscape:label="Noisy blur"
       inkscape:menu="Blurs"
       inkscape:menu-tooltip="Small-scale roughening and blurring to edges and content"
       x="-0.25"
       width="1.5"
       y="-0.25"
       height="1.5"
       color-interpolation-filters="sRGB">
      <feGaussianBlur
         id="feGaussianBlur3943"
         stdDeviation="5"
         result="result1" />
      <feTurbulence
         id="feTurbulence3945"
         numOctaves="1"
         seed="0"
         type="fractalNoise"
         baseFrequency="0.1"
         result="result2" />
      <feDisplacementMap
         in2="result2"
         id="feDisplacementMap3947"
         scale="5"
         yChannelSelector="G"
         xChannelSelector="R"
         result="result3"
         in="result1" />
      <feComposite
         in2="result3"
         id="feComposite3949"
         operator="atop" />
    </filter>
    <filter
       id="filter3951"
       inkscape:label="Noisy blur"
       inkscape:menu="Blurs"
       inkscape:menu-tooltip="Small-scale roughening and blurring to edges and content"
       x="-0.25"
       width="1.5"
       y="-0.25"
       height="1.5"
       color-interpolation-filters="sRGB">
      <feGaussianBlur
         id="feGaussianBlur3953"
         stdDeviation="5"
         result="result1" />
      <feTurbulence
         id="feTurbulence3955"
         numOctaves="1"
         seed="0"
         type="fractalNoise"
         baseFrequency="0.1"
         result="result2" />
      <feDisplacementMap
         in2="result2"
         id="feDisplacementMap3957"
         scale="5"
         yChannelSelector="G"
         xChannelSelector="R"
         result="result3"
         in="result1" />
      <feComposite
         in2="result3"
         id="feComposite3959"
         operator="atop" />
    </filter>
  </defs>
  <sodipodi:namedview
     id="base"
     pagecolor="#ffffff"
     bordercolor="#666666"
     borderopacity="1.0"
     inkscape:pageopacity="0.0"
     inkscape:pageshadow="2"
     inkscape:zoom="1.4"
     inkscape:cx="376.36059"
     inkscape:cy="203.52919"
     inkscape:document-units="px"
     inkscape:current-layer="layer1"
     showgrid="false"
     fit-margin-top="0"
     fit-margin-left="0"
     fit-margin-right="0"
     fit-margin-bottom="0"
     inkscape:window-width="1920"
     inkscape:window-height="1028"
     inkscape:window-x="-8"
     inkscape:window-y="-8"
     inkscape:window-maximized="1" />
  <metadata
     id="metadata7">
    <rdf:RDF>
      <cc:Work
         rdf:about="">
        <dc:format>image/svg+xml</dc:format>
        <dc:type
           rdf:resource="http://purl.org/dc/dcmitype/StillImage" />
        <dc:title></dc:title>
      </cc:Work>
    </rdf:RDF>
  </metadata>
  <g
     inkscape:label="Layer 1"
     inkscape:groupmode="layer"
     id="layer1"
     transform="translate(-68.571427,-218.6479)">
    <g
       transform="translate(-128.57143,-103.71428)"
       id="layer1-94"
       inkscape:label="Layer 1"
       style="fill:#000000;fill-opacity:0.84656084"
       inkscape:export-xdpi="90"
       inkscape:export-ydpi="90">
      <g
         inkscape:label="Layer 1"
         id="layer1-9"
         transform="matrix(1,0,0,1.006993,182.85714,85.78568)"
         style="fill:#000000;fill-opacity:0.84656084">
        <g
           transform="translate(108.57143,-31.142866)"
           id="layer1-7"
           inkscape:label="Layer 1"
           style="fill:#000000;fill-opacity:0.84656084">
          <rect
             y="266.07648"
             x="-94.285713"
             height="572"
             width="800"
             id="rect3776"
             style="fill:#000000;fill-opacity:0.84656084;stroke:none" />
        </g>
      </g>
    </g>
    <path
       sodipodi:type="arc"
       style="fill:#000000;fill-opacity:0.22222222;stroke:none"
       id="path2997"
       sodipodi:cx="120.35714"
       sodipodi:cy="151.35715"
       sodipodi:rx="23.214285"
       sodipodi:ry="20.357143"
       d="m 143.57142,151.35715 a 23.214285,20.357143 0 1 1 -46.428565,0 23.214285,20.357143 0 1 1 46.428565,0 z"
       transform="matrix(0.09584274,0,0,0.10929435,114.01627,263.31927)" />
    <path
       transform="matrix(0.19168546,0,0,0.21858868,163.82511,390.76096)"
       d="m 143.57142,151.35715 a 23.214285,20.357143 0 1 1 -46.428565,0 23.214285,20.357143 0 1 1 46.428565,0 z"
       sodipodi:ry="20.357143"
       sodipodi:rx="23.214285"
       sodipodi:cy="151.35715"
       sodipodi:cx="120.35714"
       id="path3767"
       style="fill:#000000;fill-opacity:0.22222222;stroke:none"
       sodipodi:type="arc" />
    <path
       sodipodi:type="arc"
       style="fill:#000000;fill-opacity:0.22222222;stroke:none"
       id="path3769"
       sodipodi:cx="120.35714"
       sodipodi:cy="151.35715"
       sodipodi:rx="23.214285"
       sodipodi:ry="20.357143"
       d="m 143.57142,151.35715 a 23.214285,20.357143 0 1 1 -46.428565,0 23.214285,20.357143 0 1 1 46.428565,0 z"
       transform="matrix(0.19168546,0,0,0.21858868,411.74486,575.11151)" />
    <path
       transform="matrix(0.28752821,0,0,0.32788301,435.49038,274.73274)"
       d="m 143.57142,151.35715 a 23.214285,20.357143 0 1 1 -46.428565,0 23.214285,20.357143 0 1 1 46.428565,0 z"
       sodipodi:ry="20.357143"
       sodipodi:rx="23.214285"
       sodipodi:cy="151.35715"
       sodipodi:cx="120.35714"
       id="path3771"
       style="fill:#000000;fill-opacity:0.22222222;stroke:none"
       sodipodi:type="arc" />
    <path
       sodipodi:type="arc"
       style="fill:#000000;fill-opacity:0.22222222;stroke:none"
       id="path3773"
       sodipodi:cx="120.35714"
       sodipodi:cy="151.35715"
       sodipodi:rx="23.214285"
       sodipodi:ry="20.357143"
       d="m 143.57142,151.35715 a 23.214285,20.357143 0 1 1 -46.428565,0 23.214285,20.357143 0 1 1 46.428565,0 z"
       transform="matrix(0.19168546,0,0,0.21858868,318.93388,282.69338)" />
    <path
       transform="matrix(0.28752821,0,0,0.32788301,204.73434,547.44443)"
       d="m 143.57142,151.35715 a 23.214285,20.357143 0 1 1 -46.428565,0 23.214285,20.357143 0 1 1 46.428565,0 z"
       sodipodi:ry="20.357143"
       sodipodi:rx="23.214285"
       sodipodi:cy="151.35715"
       sodipodi:cx="120.35714"
       id="path3775"
       style="fill:#000000;fill-opacity:0.22222222;stroke:none"
       sodipodi:type="arc" />
    <path
       sodipodi:type="arc"
       style="fill:#000000;fill-opacity:0.22222222;stroke:none"
       id="path3777"
       sodipodi:cx="120.35714"
       sodipodi:cy="151.35715"
       sodipodi:rx="23.214285"
       sodipodi:ry="20.357143"
       d="m 143.57142,151.35715 a 23.214285,20.357143 0 1 1 -46.428565,0 23.214285,20.357143 0 1 1 46.428565,0 z"
       transform="matrix(0.19168546,0,0,0.21858868,634.23692,277.60785)" />
    <path
       transform="matrix(0.38337096,0,0,0.43717735,569.21053,517.87027)"
       d="m 143.57142,151.35715 a 23.214285,20.357143 0 1 1 -46.428565,0 23.214285,20.357143 0 1 1 46.428565,0 z"
       sodipodi:ry="20.357143"
       sodipodi:rx="23.214285"
       sodipodi:cy="151.35715"
       sodipodi:cx="120.35714"
       id="path3779"
       style="fill:#000000;fill-opacity:0.22222222;stroke:none"
       sodipodi:type="arc" />
    <path
       transform="matrix(0.09584274,0,0,0.10929435,112.10918,406.34991)"
       d="m 143.57142,151.35715 a 23.214285,20.357143 0 1 1 -46.428565,0 23.214285,20.357143 0 1 1 46.428565,0 z"
       sodipodi:ry="20.357143"
       sodipodi:rx="23.214285"
       sodipodi:cy="151.35715"
       sodipodi:cx="120.35714"
       id="path4021"
       style="fill:#000000;fill-opacity:0.22222222;stroke:none"
       sodipodi:type="arc" />
    <path
       sodipodi:type="arc"
       style="fill:#000000;fill-opacity:0.22222222;stroke:none"
       id="path4023"
       sodipodi:cx="120.35714"
       sodipodi:cy="151.35715"
       sodipodi:rx="23.214285"
       sodipodi:ry="20.357143"
       d="m 143.57142,151.35715 a 23.214285,20.357143 0 1 1 -46.428565,0 23.214285,20.357143 0 1 1 46.428565,0 z"
       transform="matrix(0.09584274,0,0,0.10929435,352.4006,602.77859)" />
    <path
       transform="matrix(0.09584274,0,0,0.10929435,607.31292,248.0627)"
       d="m 143.57142,151.35715 a 23.214285,20.357143 0 1 1 -46.428565,0 23.214285,20.357143 0 1 1 46.428565,0 z"
       sodipodi:ry="20.357143"
       sodipodi:rx="23.214285"
       sodipodi:cy="151.35715"
       sodipodi:cx="120.35714"
       id="path4025"
       style="fill:#000000;fill-opacity:0.22222222;stroke:none"
       sodipodi:type="arc" />
    <path
       transform="matrix(0.09584274,0,0,0.10929435,301.54527,418.42804)"
       d="m 143.57142,151.35715 a 23.214285,20.357143 0 1 1 -46.428565,0 23.214285,20.357143 0 1 1 46.428565,0 z"
       sodipodi:ry="20.357143"
       sodipodi:rx="23.214285"
       sodipodi:cy="151.35715"
       sodipodi:cx="120.35714"
       id="path4027"
       style="fill:#000000;fill-opacity:0.22222222;stroke:none"
       sodipodi:type="arc" />
    <path
       sodipodi:type="arc"
       style="fill:#000000;fill-opacity:0.22222222;stroke:none"
       id="path4029"
       sodipodi:cx="120.35714"
       sodipodi:cy="151.35715"
       sodipodi:rx="23.214285"
       sodipodi:ry="20.357143"
       d="m 143.57142,151.35715 a 23.214285,20.357143 0 1 1 -46.428565,0 23.214285,20.357143 0 1 1 46.428565,0 z"
       transform="matrix(0.09584274,0,0,0.10929435,651.17564,615.49242)" />
    <path
       transform="matrix(0.09584274,0,0,0.10929435,480.17459,437.49877)"
       d="m 143.57142,151.35715 a 23.214285,20.357143 0 1 1 -46.428565,0 23.214285,20.357143 0 1 1 46.428565,0 z"
       sodipodi:ry="20.357143"
       sodipodi:rx="23.214285"
       sodipodi:cy="151.35715"
       sodipodi:cx="120.35714"
       id="path4031"
       style="fill:#000000;fill-opacity:0.22222222;stroke:none"
       sodipodi:type="arc" />
    <path
       sodipodi:type="arc"
       style="fill:#000000;fill-opacity:0.22222222;stroke:none"
       id="path4033"
       sodipodi:cx="120.35714"
       sodipodi:cy="151.35715"
       sodipodi:rx="23.214285"
       sodipodi:ry="20.357143"
       d="m 143.57142,151.35715 a 23.214285,20.357143 0 1 1 -46.428565,0 23.214285,20.357143 0 1 1 46.428565,0 z"
       transform="matrix(0.09584274,0,0,0.10929435,417.87683,238.52732)" />
    <path
       transform="matrix(0.09584274,0,0,0.10929435,230.3478,229.62763)"
       d="m 143.57142,151.35715 a 23.214285,20.357143 0 1 1 -46.428565,0 23.214285,20.357143 0 1 1 46.428565,0 z"
       sodipodi:ry="20.357143"
       sodipodi:rx="23.214285"
       sodipodi:cy="151.35715"
       sodipodi:cx="120.35714"
       id="path4035"
       style="fill:#000000;fill-opacity:0.22222222;stroke:none"
       sodipodi:type="arc" />
    <path
       sodipodi:type="arc"
       style="fill:#000000;fill-opacity:0.22222222;stroke:none"
       id="path4037"
       sodipodi:cx="120.35714"
       sodipodi:cy="151.35715"
       sodipodi:rx="23.214285"
       sodipodi:ry="20.357143"
       d="m 143.57142,151.35715 a 23.214285,20.357143 0 1 1 -46.428565,0 23.214285,20.357143 0 1 1 46.428565,0 z"
       transform="matrix(0.09584274,0,0,0.10929435,136.90114,535.39528)" />
    <path
       transform="matrix(0.09584274,0,0,0.10929435,361.30028,487.71842)"
       d="m 143.57142,151.35715 a 23.214285,20.357143 0 1 1 -46.428565,0 23.214285,20.357143 0 1 1 46.428565,0 z"
       sodipodi:ry="20.357143"
       sodipodi:rx="23.214285"
       sodipodi:cy="151.35715"
       sodipodi:cx="120.35714"
       id="path4039"
       style="fill:#000000;fill-opacity:0.22222222;stroke:none"
       sodipodi:type="arc" />
    <path
       sodipodi:type="arc"
       style="fill:#000000;fill-opacity:0.22222222;stroke:none"
       id="path4041"
       sodipodi:cx="120.35714"
       sodipodi:cy="151.35715"
       sodipodi:rx="23.214285"
       sodipodi:ry="20.357143"
       d="m 143.57142,151.35715 a 23.214285,20.357143 0 1 1 -46.428565,0 23.214285,20.357143 0 1 1 46.428565,0 z"
       transform="matrix(0.09584274,0,0,0.10929435,562.8145,352.95179)" />
    <path
       sodipodi:type="arc"
       style="fill:#000000;fill-opacity:0.22222222;stroke:none"
       id="path4045"
       sodipodi:cx="120.35714"
       sodipodi:cy="151.35715"
       sodipodi:rx="23.214285"
       sodipodi:ry="20.357143"
       d="m 143.57142,151.35715 a 23.214285,20.357143 0 1 1 -46.428565,0 23.214285,20.357143 0 1 1 46.428565,0 z"
       transform="matrix(0.09584274,0,0,0.10929435,503.05949,536.66668)" />
    <path
       transform="matrix(0.09584274,0,0,0.10929435,410.24852,494.07535)"
       d="m 143.57142,151.35715 a 23.214285,20.357143 0 1 1 -46.428565,0 23.214285,20.357143 0 1 1 46.428565,0 z"
       sodipodi:ry="20.357143"
       sodipodi:rx="23.214285"
       sodipodi:cy="151.35715"
       sodipodi:cx="120.35714"
       id="path4047"
       style="fill:#000000;fill-opacity:0.22222222;stroke:none"
       sodipodi:type="arc" />
    <path
       sodipodi:type="arc"
       style="fill:#000000;fill-opacity:0.22222222;stroke:none"
       id="path4049"
       sodipodi:cx="120.35714"
       sodipodi:cy="151.35715"
       sodipodi:rx="23.214285"
       sodipodi:ry="20.357143"
       d="m 143.57142,151.35715 a 23.214285,20.357143 0 1 1 -46.428565,0 23.214285,20.357143 0 1 1 46.428565,0 z"
       transform="matrix(0.09584274,0,0,0.10929435,245.60441,248.0627)" />
    <path
       transform="matrix(0.09584274,0,0,0.10929435,199.19893,400.62867)"
       d="m 143.57142,151.35715 a 23.214285,20.357143 0 1 1 -46.428565,0 23.214285,20.357143 0 1 1 46.428565,0 z"
       sodipodi:ry="20.357143"
       sodipodi:rx="23.214285"
       sodipodi:cy="151.35715"
       sodipodi:cx="120.35714"
       id="path4051"
       style="fill:#000000;fill-opacity:0.22222222;stroke:none"
       sodipodi:type="arc" />
    <path
       sodipodi:type="arc"
       style="fill:#000000;fill-opacity:0.22222222;stroke:none"
       id="path4053"
       sodipodi:cx="120.35714"
       sodipodi:cy="151.35715"
       sodipodi:rx="23.214285"
       sodipodi:ry="20.357143"
       d="m 143.57142,151.35715 a 23.214285,20.357143 0 1 1 -46.428565,0 23.214285,20.357143 0 1 1 46.428565,0 z"
       transform="matrix(0.09584274,0,0,0.10929435,665.16084,233.44179)" />
    <path
       transform="matrix(0.09584274,0,0,0.10929435,244.09996,417.29589)"
       d="m 143.57142,151.35715 a 23.214285,20.357143 0 1 1 -46.428565,0 23.214285,20.357143 0 1 1 46.428565,0 z"
       sodipodi:ry="20.357143"
       sodipodi:rx="23.214285"
       sodipodi:cy="151.35715"
       sodipodi:cx="120.35714"
       id="path4055"
       style="fill:#000000;fill-opacity:0.22222222;stroke:none"
       sodipodi:type="arc" />
    <path
       sodipodi:type="arc"
       style="fill:#000000;fill-opacity:0.22222222;stroke:none"
       id="path4057"
       sodipodi:cx="120.35714"
       sodipodi:cy="151.35715"
       sodipodi:rx="23.214285"
       sodipodi:ry="20.357143"
       d="m 143.57142,151.35715 a 23.214285,20.357143 0 1 1 -46.428565,0 23.214285,20.357143 0 1 1 46.428565,0 z"
       transform="matrix(0.19168546,0,0,0.21858868,293.9088,544.73755)" />
    <path
       transform="matrix(0.19168546,0,0,0.21858868,541.82853,729.08811)"
       d="m 143.57142,151.35715 a 23.214285,20.357143 0 1 1 -46.428565,0 23.214285,20.357143 0 1 1 46.428565,0 z"
       sodipodi:ry="20.357143"
       sodipodi:rx="23.214285"
       sodipodi:cy="151.35715"
       sodipodi:cx="120.35714"
       id="path4059"
       style="fill:#000000;fill-opacity:0.22222222;stroke:none"
       sodipodi:type="arc" />
    <path
       sodipodi:type="arc"
       style="fill:#000000;fill-opacity:0.22222222;stroke:none"
       id="path4061"
       sodipodi:cx="120.35714"
       sodipodi:cy="151.35715"
       sodipodi:rx="23.214285"
       sodipodi:ry="20.357143"
       d="m 143.57142,151.35715 a 23.214285,20.357143 0 1 1 -46.428565,0 23.214285,20.357143 0 1 1 46.428565,0 z"
       transform="matrix(0.28752821,0,0,0.32788301,565.57407,428.70934)" />
    <path
       transform="matrix(0.19168546,0,0,0.21858868,449.01756,436.66998)"
       d="m 143.57142,151.35715 a 23.214285,20.357143 0 1 1 -46.428565,0 23.214285,20.357143 0 1 1 46.428565,0 z"
       sodipodi:ry="20.357143"
       sodipodi:rx="23.214285"
       sodipodi:cy="151.35715"
       sodipodi:cx="120.35714"
       id="path4063"
       style="fill:#000000;fill-opacity:0.22222222;stroke:none"
       sodipodi:type="arc" />
    <path
       sodipodi:type="arc"
       style="fill:#000000;fill-opacity:0.22222222;stroke:none"
       id="path4065"
       sodipodi:cx="120.35714"
       sodipodi:cy="151.35715"
       sodipodi:rx="23.214285"
       sodipodi:ry="20.357143"
       d="m 143.57142,151.35715 a 23.214285,20.357143 0 1 1 -46.428565,0 23.214285,20.357143 0 1 1 46.428565,0 z"
       transform="matrix(0.28752821,0,0,0.32788301,334.81802,701.42103)" />
    <path
       transform="matrix(0.19168546,0,0,0.21858868,764.32052,431.58447)"
       d="m 143.57142,151.35715 a 23.214285,20.357143 0 1 1 -46.428565,0 23.214285,20.357143 0 1 1 46.428565,0 z"
       sodipodi:ry="20.357143"
       sodipodi:rx="23.214285"
       sodipodi:cy="151.35715"
       sodipodi:cx="120.35714"
       id="path4067"
       style="fill:#000000;fill-opacity:0.22222222;stroke:none"
       sodipodi:type="arc" />
    <path
       sodipodi:type="arc"
       style="fill:#000000;fill-opacity:0.22222222;stroke:none"
       id="path4069"
       sodipodi:cx="120.35714"
       sodipodi:cy="151.35715"
       sodipodi:rx="23.214285"
       sodipodi:ry="20.357143"
       d="m 143.57142,151.35715 a 23.214285,20.357143 0 1 1 -46.428565,0 23.214285,20.357143 0 1 1 46.428565,0 z"
       transform="matrix(0.38337096,0,0,0.43717735,699.29423,671.84687)" />
    <path
       sodipodi:type="arc"
       style="fill:#000000;fill-opacity:0.22222222;stroke:none"
       id="path4071"
       sodipodi:cx="120.35714"
       sodipodi:cy="151.35715"
       sodipodi:rx="23.214285"
       sodipodi:ry="20.357143"
       d="m 143.57142,151.35715 a 23.214285,20.357143 0 1 1 -46.428565,0 23.214285,20.357143 0 1 1 46.428565,0 z"
       transform="matrix(0.09584274,0,0,0.10929435,242.19287,560.32651)" />
    <path
       transform="matrix(0.09584274,0,0,0.10929435,482.48428,756.75519)"
       d="m 143.57142,151.35715 a 23.214285,20.357143 0 1 1 -46.428565,0 23.214285,20.357143 0 1 1 46.428565,0 z"
       sodipodi:ry="20.357143"
       sodipodi:rx="23.214285"
       sodipodi:cy="151.35715"
       sodipodi:cx="120.35714"
       id="path4073"
       style="fill:#000000;fill-opacity:0.22222222;stroke:none"
       sodipodi:type="arc" />
    <path
       sodipodi:type="arc"
       style="fill:#000000;fill-opacity:0.22222222;stroke:none"
       id="path4075"
       sodipodi:cx="120.35714"
       sodipodi:cy="151.35715"
       sodipodi:rx="23.214285"
       sodipodi:ry="20.357143"
       d="m 143.57142,151.35715 a 23.214285,20.357143 0 1 1 -46.428565,0 23.214285,20.357143 0 1 1 46.428565,0 z"
       transform="matrix(0.09584274,0,0,0.10929435,737.39654,402.03929)" />
    <path
       sodipodi:type="arc"
       style="fill:#000000;fill-opacity:0.22222222;stroke:none"
       id="path4077"
       sodipodi:cx="120.35714"
       sodipodi:cy="151.35715"
       sodipodi:rx="23.214285"
       sodipodi:ry="20.357143"
       d="m 143.57142,151.35715 a 23.214285,20.357143 0 1 1 -46.428565,0 23.214285,20.357143 0 1 1 46.428565,0 z"
       transform="matrix(0.09584274,0,0,0.10929435,431.62896,572.40464)" />
    <path
       transform="matrix(0.09584274,0,0,0.10929435,781.25926,769.46903)"
       d="m 143.57142,151.35715 a 23.214285,20.357143 0 1 1 -46.428565,0 23.214285,20.357143 0 1 1 46.428565,0 z"
       sodipodi:ry="20.357143"
       sodipodi:rx="23.214285"
       sodipodi:cy="151.35715"
       sodipodi:cx="120.35714"
       id="path4079"
       style="fill:#000000;fill-opacity:0.22222222;stroke:none"
       sodipodi:type="arc" />
    <path
       sodipodi:type="arc"
       style="fill:#000000;fill-opacity:0.22222222;stroke:none"
       id="path4081"
       sodipodi:cx="120.35714"
       sodipodi:cy="151.35715"
       sodipodi:rx="23.214285"
       sodipodi:ry="20.357143"
       d="m 143.57142,151.35715 a 23.214285,20.357143 0 1 1 -46.428565,0 23.214285,20.357143 0 1 1 46.428565,0 z"
       transform="matrix(0.09584274,0,0,0.10929435,610.25827,591.47537)" />
    <path
       transform="matrix(0.09584274,0,0,0.10929435,547.96052,392.50392)"
       d="m 143.57142,151.35715 a 23.214285,20.357143 0 1 1 -46.428565,0 23.214285,20.357143 0 1 1 46.428565,0 z"
       sodipodi:ry="20.357143"
       sodipodi:rx="23.214285"
       sodipodi:cy="151.35715"
       sodipodi:cx="120.35714"
       id="path4083"
       style="fill:#000000;fill-opacity:0.22222222;stroke:none"
       sodipodi:type="arc" />
    <path
       sodipodi:type="arc"
       style="fill:#000000;fill-opacity:0.22222222;stroke:none"
       id="path4085"
       sodipodi:cx="120.35714"
       sodipodi:cy="151.35715"
       sodipodi:rx="23.214285"
       sodipodi:ry="20.357143"
       d="m 143.57142,151.35715 a 23.214285,20.357143 0 1 1 -46.428565,0 23.214285,20.357143 0 1 1 46.428565,0 z"
       transform="matrix(0.09584274,0,0,0.10929435,360.43148,383.60423)" />
    <path
       transform="matrix(0.09584274,0,0,0.10929435,266.98482,689.37188)"
       d="m 143.57142,151.35715 a 23.214285,20.357143 0 1 1 -46.428565,0 23.214285,20.357143 0 1 1 46.428565,0 z"
       sodipodi:ry="20.357143"
       sodipodi:rx="23.214285"
       sodipodi:cy="151.35715"
       sodipodi:cx="120.35714"
       id="path4087"
       style="fill:#000000;fill-opacity:0.22222222;stroke:none"
       sodipodi:type="arc" />
    <path
       sodipodi:type="arc"
       style="fill:#000000;fill-opacity:0.22222222;stroke:none"
       id="path4089"
       sodipodi:cx="120.35714"
       sodipodi:cy="151.35715"
       sodipodi:rx="23.214285"
       sodipodi:ry="20.357143"
       d="m 143.57142,151.35715 a 23.214285,20.357143 0 1 1 -46.428565,0 23.214285,20.357143 0 1 1 46.428565,0 z"
       transform="matrix(0.09584274,0,0,0.10929435,491.38397,641.69502)" />
    <path
       transform="matrix(0.09584274,0,0,0.10929435,692.8982,506.92839)"
       d="m 143.57142,151.35715 a 23.214285,20.357143 0 1 1 -46.428565,0 23.214285,20.357143 0 1 1 46.428565,0 z"
       sodipodi:ry="20.357143"
       sodipodi:rx="23.214285"
       sodipodi:cy="151.35715"
       sodipodi:cx="120.35714"
       id="path4091"
       style="fill:#000000;fill-opacity:0.22222222;stroke:none"
       sodipodi:type="arc" />
    <path
       sodipodi:type="arc"
       style="fill:#000000;fill-opacity:0.22222222;stroke:none"
       id="path4093"
       sodipodi:cx="120.35714"
       sodipodi:cy="151.35715"
       sodipodi:rx="23.214285"
       sodipodi:ry="20.357143"
       d="m 143.57142,151.35715 a 23.214285,20.357143 0 1 1 -46.428565,0 23.214285,20.357143 0 1 1 46.428565,0 z"
       transform="matrix(0.09584274,0,0,0.10929435,734.21822,601.01075)" />
    <path
       transform="matrix(0.09584274,0,0,0.10929435,633.14318,690.64328)"
       d="m 143.57142,151.35715 a 23.214285,20.357143 0 1 1 -46.428565,0 23.214285,20.357143 0 1 1 46.428565,0 z"
       sodipodi:ry="20.357143"
       sodipodi:rx="23.214285"
       sodipodi:cy="151.35715"
       sodipodi:cx="120.35714"
       id="path4095"
       style="fill:#000000;fill-opacity:0.22222222;stroke:none"
       sodipodi:type="arc" />
    <path
       sodipodi:type="arc"
       style="fill:#000000;fill-opacity:0.22222222;stroke:none"
       id="path4097"
       sodipodi:cx="120.35714"
       sodipodi:cy="151.35715"
       sodipodi:rx="23.214285"
       sodipodi:ry="20.357143"
       d="m 143.57142,151.35715 a 23.214285,20.357143 0 1 1 -46.428565,0 23.214285,20.357143 0 1 1 46.428565,0 z"
       transform="matrix(0.09584274,0,0,0.10929435,540.33221,648.05195)" />
    <path
       transform="matrix(0.09584274,0,0,0.10929435,375.68808,402.03929)"
       d="m 143.57142,151.35715 a 23.214285,20.357143 0 1 1 -46.428565,0 23.214285,20.357143 0 1 1 46.428565,0 z"
       sodipodi:ry="20.357143"
       sodipodi:rx="23.214285"
       sodipodi:cy="151.35715"
       sodipodi:cx="120.35714"
       id="path4099"
       style="fill:#000000;fill-opacity:0.22222222;stroke:none"
       sodipodi:type="arc" />
    <path
       sodipodi:type="arc"
       style="fill:#000000;fill-opacity:0.22222222;stroke:none"
       id="path4101"
       sodipodi:cx="120.35714"
       sodipodi:cy="151.35715"
       sodipodi:rx="23.214285"
       sodipodi:ry="20.357143"
       d="m 143.57142,151.35715 a 23.214285,20.357143 0 1 1 -46.428565,0 23.214285,20.357143 0 1 1 46.428565,0 z"
       transform="matrix(0.09584274,0,0,0.10929435,329.28262,554.60528)" />
    <path
       transform="matrix(0.09584274,0,0,0.10929435,795.24457,387.41838)"
       d="m 143.57142,151.35715 a 23.214285,20.357143 0 1 1 -46.428565,0 23.214285,20.357143 0 1 1 46.428565,0 z"
       sodipodi:ry="20.357143"
       sodipodi:rx="23.214285"
       sodipodi:cy="151.35715"
       sodipodi:cx="120.35714"
       id="path4103"
       style="fill:#000000;fill-opacity:0.22222222;stroke:none"
       sodipodi:type="arc" />
    <path
       sodipodi:type="arc"
       style="fill:#000000;fill-opacity:0.22222222;stroke:none"
       id="path4105"
       sodipodi:cx="120.35714"
       sodipodi:cy="151.35715"
       sodipodi:rx="23.214285"
       sodipodi:ry="20.357143"
       d="m 143.57142,151.35715 a 23.214285,20.357143 0 1 1 -46.428565,0 23.214285,20.357143 0 1 1 46.428565,0 z"
       transform="matrix(0.09584274,0,0,0.10929435,244.09996,417.29589)" />
    <path
       transform="matrix(0.19168546,0,0,0.21858868,293.9088,544.73755)"
       d="m 143.57142,151.35715 a 23.214285,20.357143 0 1 1 -46.428565,0 23.214285,20.357143 0 1 1 46.428565,0 z"
       sodipodi:ry="20.357143"
       sodipodi:rx="23.214285"
       sodipodi:cy="151.35715"
       sodipodi:cx="120.35714"
       id="path4107"
       style="fill:#000000;fill-opacity:0.22222222;stroke:none"
       sodipodi:type="arc" />
    <path
       sodipodi:type="arc"
       style="fill:#000000;fill-opacity:0.22222222;stroke:none"
       id="path4109"
       sodipodi:cx="120.35714"
       sodipodi:cy="151.35715"
       sodipodi:rx="23.214285"
       sodipodi:ry="20.357143"
       d="m 143.57142,151.35715 a 23.214285,20.357143 0 1 1 -46.428565,0 23.214285,20.357143 0 1 1 46.428565,0 z"
       transform="matrix(0.19168546,0,0,0.21858868,541.82853,729.08811)" />
    <path
       transform="matrix(0.28752821,0,0,0.32788301,565.57407,428.70934)"
       d="m 143.57142,151.35715 a 23.214285,20.357143 0 1 1 -46.428565,0 23.214285,20.357143 0 1 1 46.428565,0 z"
       sodipodi:ry="20.357143"
       sodipodi:rx="23.214285"
       sodipodi:cy="151.35715"
       sodipodi:cx="120.35714"
       id="path4111"
       style="fill:#000000;fill-opacity:0.22222222;stroke:none"
       sodipodi:type="arc" />
    <path
       sodipodi:type="arc"
       style="fill:#000000;fill-opacity:0.22222222;stroke:none"
       id="path4113"
       sodipodi:cx="120.35714"
       sodipodi:cy="151.35715"
       sodipodi:rx="23.214285"
       sodipodi:ry="20.357143"
       d="m 143.57142,151.35715 a 23.214285,20.357143 0 1 1 -46.428565,0 23.214285,20.357143 0 1 1 46.428565,0 z"
       transform="matrix(0.19168546,0,0,0.21858868,449.01756,436.66998)" />
    <path
       transform="matrix(0.28752821,0,0,0.32788301,334.81802,701.42103)"
       d="m 143.57142,151.35715 a 23.214285,20.357143 0 1 1 -46.428565,0 23.214285,20.357143 0 1 1 46.428565,0 z"
       sodipodi:ry="20.357143"
       sodipodi:rx="23.214285"
       sodipodi:cy="151.35715"
       sodipodi:cx="120.35714"
       id="path4115"
       style="fill:#000000;fill-opacity:0.22222222;stroke:none"
       sodipodi:type="arc" />
    <path
       sodipodi:type="arc"
       style="fill:#000000;fill-opacity:0.22222222;stroke:none"
       id="path4117"
       sodipodi:cx="120.35714"
       sodipodi:cy="151.35715"
       sodipodi:rx="23.214285"
       sodipodi:ry="20.357143"
       d="m 143.57142,151.35715 a 23.214285,20.357143 0 1 1 -46.428565,0 23.214285,20.357143 0 1 1 46.428565,0 z"
       transform="matrix(0.19168546,0,0,0.21858868,764.32052,431.58447)" />
    <path
       transform="matrix(0.38337096,0,0,0.43717735,699.29423,671.84687)"
       d="m 143.57142,151.35715 a 23.214285,20.357143 0 1 1 -46.428565,0 23.214285,20.357143 0 1 1 46.428565,0 z"
       sodipodi:ry="20.357143"
       sodipodi:rx="23.214285"
       sodipodi:cy="151.35715"
       sodipodi:cx="120.35714"
       id="path4119"
       style="fill:#000000;fill-opacity:0.22222222;stroke:none"
       sodipodi:type="arc" />
    <path
       transform="matrix(0.09584274,0,0,0.10929435,242.19287,560.32651)"
       d="m 143.57142,151.35715 a 23.214285,20.357143 0 1 1 -46.428565,0 23.214285,20.357143 0 1 1 46.428565,0 z"
       sodipodi:ry="20.357143"
       sodipodi:rx="23.214285"
       sodipodi:cy="151.35715"
       sodipodi:cx="120.35714"
       id="path4121"
       style="fill:#000000;fill-opacity:0.22222222;stroke:none"
       sodipodi:type="arc" />
    <path
       sodipodi:type="arc"
       style="fill:#000000;fill-opacity:0.22222222;stroke:none"
       id="path4123"
       sodipodi:cx="120.35714"
       sodipodi:cy="151.35715"
       sodipodi:rx="23.214285"
       sodipodi:ry="20.357143"
       d="m 143.57142,151.35715 a 23.214285,20.357143 0 1 1 -46.428565,0 23.214285,20.357143 0 1 1 46.428565,0 z"
       transform="matrix(0.09584274,0,0,0.10929435,482.48428,756.75519)" />
    <path
       transform="matrix(0.09584274,0,0,0.10929435,737.39654,402.03929)"
       d="m 143.57142,151.35715 a 23.214285,20.357143 0 1 1 -46.428565,0 23.214285,20.357143 0 1 1 46.428565,0 z"
       sodipodi:ry="20.357143"
       sodipodi:rx="23.214285"
       sodipodi:cy="151.35715"
       sodipodi:cx="120.35714"
       id="path4125"
       style="fill:#000000;fill-opacity:0.22222222;stroke:none"
       sodipodi:type="arc" />
    <path
       transform="matrix(0.09584274,0,0,0.10929435,431.62896,572.40464)"
       d="m 143.57142,151.35715 a 23.214285,20.357143 0 1 1 -46.428565,0 23.214285,20.357143 0 1 1 46.428565,0 z"
       sodipodi:ry="20.357143"
       sodipodi:rx="23.214285"
       sodipodi:cy="151.35715"
       sodipodi:cx="120.35714"
       id="path4127"
       style="fill:#000000;fill-opacity:0.22222222;stroke:none"
       sodipodi:type="arc" />
    <path
       sodipodi:type="arc"
       style="fill:#000000;fill-opacity:0.22222222;stroke:none"
       id="path4129"
       sodipodi:cx="120.35714"
       sodipodi:cy="151.35715"
       sodipodi:rx="23.214285"
       sodipodi:ry="20.357143"
       d="m 143.57142,151.35715 a 23.214285,20.357143 0 1 1 -46.428565,0 23.214285,20.357143 0 1 1 46.428565,0 z"
       transform="matrix(0.09584274,0,0,0.10929435,781.25926,769.46903)" />
    <path
       transform="matrix(0.09584274,0,0,0.10929435,610.25827,591.47537)"
       d="m 143.57142,151.35715 a 23.214285,20.357143 0 1 1 -46.428565,0 23.214285,20.357143 0 1 1 46.428565,0 z"
       sodipodi:ry="20.357143"
       sodipodi:rx="23.214285"
       sodipodi:cy="151.35715"
       sodipodi:cx="120.35714"
       id="path4131"
       style="fill:#000000;fill-opacity:0.22222222;stroke:none"
       sodipodi:type="arc" />
    <path
       sodipodi:type="arc"
       style="fill:#000000;fill-opacity:0.22222222;stroke:none"
       id="path4133"
       sodipodi:cx="120.35714"
       sodipodi:cy="151.35715"
       sodipodi:rx="23.214285"
       sodipodi:ry="20.357143"
       d="m 143.57142,151.35715 a 23.214285,20.357143 0 1 1 -46.428565,0 23.214285,20.357143 0 1 1 46.428565,0 z"
       transform="matrix(0.09584274,0,0,0.10929435,547.96052,392.50392)" />
    <path
       transform="matrix(0.09584274,0,0,0.10929435,360.43148,383.60423)"
       d="m 143.57142,151.35715 a 23.214285,20.357143 0 1 1 -46.428565,0 23.214285,20.357143 0 1 1 46.428565,0 z"
       sodipodi:ry="20.357143"
       sodipodi:rx="23.214285"
       sodipodi:cy="151.35715"
       sodipodi:cx="120.35714"
       id="path4135"
       style="fill:#000000;fill-opacity:0.22222222;stroke:none"
       sodipodi:type="arc" />
    <path
       sodipodi:type="arc"
       style="fill:#000000;fill-opacity:0.22222222;stroke:none"
       id="path4137"
       sodipodi:cx="120.35714"
       sodipodi:cy="151.35715"
       sodipodi:rx="23.214285"
       sodipodi:ry="20.357143"
       d="m 143.57142,151.35715 a 23.214285,20.357143 0 1 1 -46.428565,0 23.214285,20.357143 0 1 1 46.428565,0 z"
       transform="matrix(0.09584274,0,0,0.10929435,266.98482,689.37188)" />
    <path
       transform="matrix(0.09584274,0,0,0.10929435,491.38397,641.69502)"
       d="m 143.57142,151.35715 a 23.214285,20.357143 0 1 1 -46.428565,0 23.214285,20.357143 0 1 1 46.428565,0 z"
       sodipodi:ry="20.357143"
       sodipodi:rx="23.214285"
       sodipodi:cy="151.35715"
       sodipodi:cx="120.35714"
       id="path4139"
       style="fill:#000000;fill-opacity:0.22222222;stroke:none"
       sodipodi:type="arc" />
    <path
       sodipodi:type="arc"
       style="fill:#000000;fill-opacity:0.22222222;stroke:none"
       id="path4141"
       sodipodi:cx="120.35714"
       sodipodi:cy="151.35715"
       sodipodi:rx="23.214285"
       sodipodi:ry="20.357143"
       d="m 143.57142,151.35715 a 23.214285,20.357143 0 1 1 -46.428565,0 23.214285,20.357143 0 1 1 46.428565,0 z"
       transform="matrix(0.09584274,0,0,0.10929435,692.8982,506.92839)" />
    <path
       transform="matrix(0.09584274,0,0,0.10929435,734.21822,601.01075)"
       d="m 143.57142,151.35715 a 23.214285,20.357143 0 1 1 -46.428565,0 23.214285,20.357143 0 1 1 46.428565,0 z"
       sodipodi:ry="20.357143"
       sodipodi:rx="23.214285"
       sodipodi:cy="151.35715"
       sodipodi:cx="120.35714"
       id="path4143"
       style="fill:#000000;fill-opacity:0.22222222;stroke:none"
       sodipodi:type="arc" />
    <path
       sodipodi:type="arc"
       style="fill:#000000;fill-opacity:0.22222222;stroke:none"
       id="path4145"
       sodipodi:cx="120.35714"
       sodipodi:cy="151.35715"
       sodipodi:rx="23.214285"
       sodipodi:ry="20.357143"
       d="m 143.57142,151.35715 a 23.214285,20.357143 0 1 1 -46.428565,0 23.214285,20.357143 0 1 1 46.428565,0 z"
       transform="matrix(0.09584274,0,0,0.10929435,633.14318,690.64328)" />
    <path
       transform="matrix(0.09584274,0,0,0.10929435,540.33221,648.05195)"
       d="m 143.57142,151.35715 a 23.214285,20.357143 0 1 1 -46.428565,0 23.214285,20.357143 0 1 1 46.428565,0 z"
       sodipodi:ry="20.357143"
       sodipodi:rx="23.214285"
       sodipodi:cy="151.35715"
       sodipodi:cx="120.35714"
       id="path4147"
       style="fill:#000000;fill-opacity:0.22222222;stroke:none"
       sodipodi:type="arc" />
    <path
       sodipodi:type="arc"
       style="fill:#000000;fill-opacity:0.22222222;stroke:none"
       id="path4149"
       sodipodi:cx="120.35714"
       sodipodi:cy="151.35715"
       sodipodi:rx="23.214285"
       sodipodi:ry="20.357143"
       d="m 143.57142,151.35715 a 23.214285,20.357143 0 1 1 -46.428565,0 23.214285,20.357143 0 1 1 46.428565,0 z"
       transform="matrix(0.09584274,0,0,0.10929435,375.68808,402.03929)" />
    <path
       transform="matrix(0.09584274,0,0,0.10929435,329.28262,554.60528)"
       d="m 143.57142,151.35715 a 23.214285,20.357143 0 1 1 -46.428565,0 23.214285,20.357143 0 1 1 46.428565,0 z"
       sodipodi:ry="20.357143"
       sodipodi:rx="23.214285"
       sodipodi:cy="151.35715"
       sodipodi:cx="120.35714"
       id="path4151"
       style="fill:#000000;fill-opacity:0.22222222;stroke:none"
       sodipodi:type="arc" />
    <path
       sodipodi:type="arc"
       style="fill:#000000;fill-opacity:0.22222222;stroke:none"
       id="path4153"
       sodipodi:cx="120.35714"
       sodipodi:cy="151.35715"
       sodipodi:rx="23.214285"
       sodipodi:ry="20.357143"
       d="m 143.57142,151.35715 a 23.214285,20.357143 0 1 1 -46.428565,0 23.214285,20.357143 0 1 1 46.428565,0 z"
       transform="matrix(0.09584274,0,0,0.10929435,795.24457,387.41838)" />
  </g>
</svg>
