<?xml version="1.0" encoding="UTF-8" standalone="no"?>
<!-- Created with Inkscape (http://www.inkscape.org/) -->

<svg
   xmlns:dc="http://purl.org/dc/elements/1.1/"
   xmlns:cc="http://creativecommons.org/ns#"
   xmlns:rdf="http://www.w3.org/1999/02/22-rdf-syntax-ns#"
   xmlns:svg="http://www.w3.org/2000/svg"
   xmlns="http://www.w3.org/2000/svg"
   xmlns:sodipodi="http://sodipodi.sourceforge.net/DTD/sodipodi-0.dtd"
   xmlns:inkscape="http://www.inkscape.org/namespaces/inkscape"
   width="500"
   height="100"
   id="svg2"
   version="1.1"
   inkscape:version="0.48.2 r9819"
   sodipodi:docname="planet1.svg"
   inkscape:export-filename="C:\wamp\www\DownTheLine (post compo)\assets\gfx\planet1.png"
   inkscape:export-xdpi="90"
   inkscape:export-ydpi="90">
  <defs
     id="defs4" />
  <sodipodi:namedview
     id="base"
     pagecolor="#ffffff"
     bordercolor="#666666"
     borderopacity="1.0"
     inkscape:pageopacity="0.0"
     inkscape:pageshadow="2"
     inkscape:zoom="2.0788939"
     inkscape:cx="237.46076"
     inkscape:cy="21.502807"
     inkscape:document-units="px"
     inkscape:current-layer="layer1"
     showgrid="false"
     fit-margin-top="0"
     fit-margin-left="0"
     fit-margin-right="0"
     fit-margin-bottom="0"
     inkscape:window-width="1920"
     inkscape:window-height="1028"
     inkscape:window-x="-8"
     inkscape:window-y="-8"
     inkscape:window-maximized="1" />
  <metadata
     id="metadata7">
    <rdf:RDF>
      <cc:Work
         rdf:about="">
        <dc:format>image/svg+xml</dc:format>
        <dc:type
           rdf:resource="http://purl.org/dc/dcmitype/StillImage" />
        <dc:title></dc:title>
      </cc:Work>
    </rdf:RDF>
  </metadata>
  <g
     inkscape:label="Layer 1"
     inkscape:groupmode="layer"
     id="layer1"
     transform="translate(-51.428565,-652.36221)">
    <path
       sodipodi:type="arc"
       style="fill:#71c837;fill-opacity:0.38624339;stroke:none"
       id="path2985-1-4"
       sodipodi:cx="222.85715"
       sodipodi:cy="559.50507"
       sodipodi:rx="288.57144"
       sodipodi:ry="270"
       d="m 511.42859,559.50507 c 0,149.11688 -129.19784,270 -288.57144,270 -159.373609,0 -288.571444,-120.88312 -288.571444,-270 0,-149.11689 129.197835,-270 288.571444,-270 159.3736,0 288.57144,120.88311 288.57144,270 z"
       transform="matrix(0.15594059,0,0,0.16666667,166.67609,609.11136)" />
    <path
       sodipodi:type="arc"
       style="fill:#71c837;fill-opacity:1;stroke:none"
       id="path2985"
       sodipodi:cx="222.85715"
       sodipodi:cy="559.50507"
       sodipodi:rx="288.57144"
       sodipodi:ry="270"
       d="m 511.42859,559.50507 a 288.57144,270 0 1 1 -577.142884,0 288.57144,270 0 1 1 577.142884,0 z"
       transform="matrix(0.0519802,0,0,0.05555556,89.844407,671.27859)" />
    <path
       sodipodi:type="arc"
       style="fill:#71c837;fill-opacity:0.38624339;stroke:none"
       id="path2985-1"
       sodipodi:cx="222.85715"
       sodipodi:cy="559.50507"
       sodipodi:rx="288.57144"
       sodipodi:ry="270"
       d="m 511.42859,559.50507 c 0,149.11688 -129.19784,270 -288.57144,270 -159.373609,0 -288.571444,-120.88312 -288.571444,-270 0,-149.11689 129.197835,-270 288.571444,-270 159.3736,0 288.57144,120.88311 288.57144,270 z"
       transform="matrix(0.17326732,0,0,0.18518519,62.814705,598.75016)" />
    <path
       sodipodi:type="arc"
       style="fill:#71c837;fill-opacity:1;stroke:none"
       id="path2985-7"
       sodipodi:cx="222.85715"
       sodipodi:cy="559.50507"
       sodipodi:rx="288.57144"
       sodipodi:ry="270"
       d="m 511.42859,559.50507 a 288.57144,270 0 1 1 -577.142884,0 288.57144,270 0 1 1 577.142884,0 z"
       transform="matrix(0.0519802,0,0,0.05555556,189.84441,671.27859)" />
    <path
       sodipodi:type="arc"
       style="fill:#71c837;fill-opacity:0.38624339;stroke:none"
       id="path2985-1-9"
       sodipodi:cx="222.85715"
       sodipodi:cy="559.50507"
       sodipodi:rx="288.57144"
       sodipodi:ry="270"
       d="m 511.42859,559.50507 c 0,149.11688 -129.19784,270 -288.57144,270 -159.373609,0 -288.571444,-120.88312 -288.571444,-270 0,-149.11689 129.197835,-270 288.571444,-270 159.3736,0 288.57144,120.88311 288.57144,270 z"
       transform="matrix(0.13861386,0,0,0.14814815,270.53748,619.47257)" />
    <path
       sodipodi:type="arc"
       style="fill:#71c837;fill-opacity:0.38624339;stroke:none"
       id="path2985-1-8"
       sodipodi:cx="222.85715"
       sodipodi:cy="559.50507"
       sodipodi:rx="288.57144"
       sodipodi:ry="270"
       d="m 511.42859,559.50507 c 0,149.11688 -129.19784,270 -288.57144,270 -159.373609,0 -288.571444,-120.88312 -288.571444,-270 0,-149.11689 129.197835,-270 288.571444,-270 159.3736,0 288.57144,120.88311 288.57144,270 z"
       transform="matrix(0.12128712,0,0,0.12962963,374.39886,629.83378)" />
    <path
       sodipodi:type="arc"
       style="fill:#71c837;fill-opacity:1;stroke:none"
       id="path2985-8"
       sodipodi:cx="222.85715"
       sodipodi:cy="559.50507"
       sodipodi:rx="288.57144"
       sodipodi:ry="270"
       d="m 511.42859,559.50507 a 288.57144,270 0 1 1 -577.142884,0 288.57144,270 0 1 1 577.142884,0 z"
       transform="matrix(0.0519802,0,0,0.05555556,489.84441,671.27859)" />
    <path
       sodipodi:type="arc"
       style="fill:#71c837;fill-opacity:1;stroke:none"
       id="path2985-8-1"
       sodipodi:cx="222.85715"
       sodipodi:cy="559.50507"
       sodipodi:rx="288.57144"
       sodipodi:ry="270"
       d="m 511.42859,559.50507 a 288.57144,270 0 1 1 -577.142884,0 288.57144,270 0 1 1 577.142884,0 z"
       transform="matrix(0.0519802,0,0,0.05555556,389.84441,671.27859)" />
    <path
       sodipodi:type="arc"
       style="fill:#71c837;fill-opacity:1;stroke:none"
       id="path2985-8-7"
       sodipodi:cx="222.85715"
       sodipodi:cy="559.50507"
       sodipodi:rx="288.57144"
       sodipodi:ry="270"
       d="m 511.42859,559.50507 a 288.57144,270 0 1 1 -577.142884,0 288.57144,270 0 1 1 577.142884,0 z"
       transform="matrix(0.0519802,0,0,0.05555556,289.84441,671.27859)" />
  </g>
</svg>
