<?xml version="1.0" encoding="UTF-8" standalone="no"?>
<!-- Created with Inkscape (http://www.inkscape.org/) -->

<svg
   xmlns:dc="http://purl.org/dc/elements/1.1/"
   xmlns:cc="http://creativecommons.org/ns#"
   xmlns:rdf="http://www.w3.org/1999/02/22-rdf-syntax-ns#"
   xmlns:svg="http://www.w3.org/2000/svg"
   xmlns="http://www.w3.org/2000/svg"
   xmlns:sodipodi="http://sodipodi.sourceforge.net/DTD/sodipodi-0.dtd"
   xmlns:inkscape="http://www.inkscape.org/namespaces/inkscape"
   width="50"
   height="48.5"
   id="svg2"
   version="1.1"
   inkscape:version="0.48.2 r9819"
   sodipodi:docname="replay.svg"
   inkscape:export-filename="C:\wamp\www\DownTheLine\assets\gfx\replay.png"
   inkscape:export-xdpi="90"
   inkscape:export-ydpi="90">
  <defs
     id="defs4" />
  <sodipodi:namedview
     id="base"
     pagecolor="#ffffff"
     bordercolor="#666666"
     borderopacity="1.0"
     inkscape:pageopacity="0.0"
     inkscape:pageshadow="2"
     inkscape:zoom="7.9195959"
     inkscape:cx="13.010191"
     inkscape:cy="-4.0177282"
     inkscape:document-units="px"
     inkscape:current-layer="layer1"
     showgrid="false"
     inkscape:window-width="1920"
     inkscape:window-height="1028"
     inkscape:window-x="-8"
     inkscape:window-y="-8"
     inkscape:window-maximized="1"
     fit-margin-top="0"
     fit-margin-left="0"
     fit-margin-right="0"
     fit-margin-bottom="0" />
  <metadata
     id="metadata7">
    <rdf:RDF>
      <cc:Work
         rdf:about="">
        <dc:format>image/svg+xml</dc:format>
        <dc:type
           rdf:resource="http://purl.org/dc/dcmitype/StillImage" />
        <dc:title></dc:title>
      </cc:Work>
    </rdf:RDF>
  </metadata>
  <g
     inkscape:label="Layer 1"
     inkscape:groupmode="layer"
     id="layer1"
     transform="translate(-109.28572,-313.82647)">
    <path
       sodipodi:type="arc"
       style="fill:#e3dedb;fill-opacity:1;stroke:none"
       id="path3773"
       sodipodi:cx="318.39285"
       sodipodi:cy="412.85324"
       sodipodi:rx="23.125"
       sodipodi:ry="20.669643"
       d="m 341.51785,412.85324 c 0,11.41553 -10.35341,20.66964 -23.125,20.66964 -12.77158,0 -23.125,-9.25411 -23.125,-20.66964 0,-11.41553 10.35342,-20.66964 23.125,-20.66964 12.77159,0 23.125,9.25411 23.125,20.66964 z"
       transform="matrix(1.0810811,0,0,1.1732181,-209.92278,-146.29043)"
       inkscape:export-xdpi="90"
       inkscape:export-ydpi="90" />
    <g
       transform="translate(-196.02765,-379.39624)"
       id="layer1-1"
       inkscape:label="Layer 1"
       style="fill:#202222;fill-opacity:1">
      <g
         style="fill:#202222;fill-opacity:1"
         transform="matrix(0.49739404,0,0,0.49468171,310.31336,699.2227)"
         id="g3910">
        <path
           inkscape:connector-curvature="0"
           style="fill:#202222;fill-opacity:1;fill-rule:evenodd;stroke:none"
           d="m 38.920049,56.838694 1.306267,0.03295 1.306267,-0.03295 1.272772,-0.0659 1.306267,-0.16475 1.272773,-0.1977 1.272772,-0.23065 1.239279,-0.329499 1.239279,-0.36245 1.205784,-0.3954 1.172291,-0.461299 1.138797,-0.5272 1.138796,-0.560149 1.071809,-0.5931 1.071808,-0.658999 1.004821,-0.691949 0.971326,-0.757849 0.904339,-0.7908 0.904338,-0.823749 0.803857,-0.856699 0.770362,-0.889649 0.736869,-0.922599 0.66988,-0.955549 0.602892,-0.988499 0.569399,-0.988499 0.50241,-1.054399 0.435422,-1.054399 0.368434,-1.054399 0.301447,-1.087349 0.234458,-1.087349 0.200964,-1.120299 0.100482,-1.120299 0.06699,-1.087349 0,-1.120299 -0.100482,-1.120298 -0.133976,-1.120299 -0.200964,-1.087349 -0.267952,-1.087349 -0.334941,-1.087349 -0.401928,-1.054399 -0.468916,-1.054399 -0.50241,-1.021449 -0.569399,-0.988499 -0.636386,-0.988499 -0.703374,-0.955549 -0.736869,-0.889649 -0.803856,-0.889649 -0.837351,-0.8567 -0.904338,-0.790799 -0.937833,-0.790799 -0.971326,-0.724899 -1.038315,-0.69195 -1.071808,-0.626049 -1.105303,-0.593099 -1.105303,-0.5272 -1.17229,-0.494249 -1.205785,-0.4613 -1.205785,-0.395399 -1.239278,-0.3295 -1.239279,-0.29655 -1.272773,-0.23065 -1.272772,-0.164749 -1.306267,-0.1318 -1.306267,-0.0659 -1.272772,0 -1.306267,0.0659 -1.306267,0.09885 -1.272773,0.131799 -1.272772,0.23065 -1.272773,0.2636 -1.239279,0.3295 -1.205784,0.362449 -1.205785,0.42835 -1.172291,0.494249 -1.138796,0.5272 -1.105303,0.560149 -1.071808,0.62605 -1.038315,0.691949 -1.00482,0.691949 -0.971327,0.75785 -0.904338,0.790799 -0.837351,0.856699 -0.83735,0.856699 -0.736869,0.922599 -0.703374,0.922599 -0.669881,0.955549 -0.602892,0.988499 -0.535904,1.021449 -0.468916,1.054399 -0.401929,1.054399 -0.368434,1.054399 -0.301446,1.087349 -0.200964,1.120299 -0.16747,1.087349 -0.100482,1.120299 -0.03349,1.120299 L 0,34.597466 0.06698804,32.851117 0.20096411,31.137719 0.46891625,29.424321 0.80385644,27.710922 1.2392787,26.030474 1.808677,24.350026 2.4450633,22.702527 3.1819317,21.087979 4.0192822,19.506381 4.9571147,17.990682 5.9619352,16.474984 7.0672378,15.025185 8.2395285,13.608336 9.4788071,12.257388 10.818568,10.972339 12.258811,9.7202403 13.732547,8.5669915 15.273272,7.4466926 16.880985,6.4252436 18.555686,5.4367446 20.263881,4.5470955 22.039064,3.7233463 23.881235,2.9654971 25.723406,2.3064977 27.632565,1.7463483 29.541724,1.2191488 31.517871,0.82374918 33.494018,0.49424951 35.470165,0.23064977 37.479806,0.06589993 39.489447,0 l 2.009642,0.03294997 2.009641,0.0988499 2.009641,0.16474984 2.009641,0.2965497 1.942653,0.32949967 1.976147,0.46129952 1.909159,0.5271995 1.875665,0.5930994 1.842171,0.6919493 1.808677,0.7907992 1.775183,0.8237492 1.708195,0.9225991 1.641207,0.988499 1.607713,1.054399 1.50723,1.1532488 1.473737,1.1861989 1.373255,1.252099 1.306267,1.317998 1.239278,1.350949 1.172291,1.416849 1.071809,1.482748 0.971326,1.515699 0.904339,1.548648 0.803856,1.581599 0.703374,1.647498 0.636387,1.647498 0.50241,1.647499 0.435422,1.713398 0.301446,1.713398 0.234459,1.713399 0.100482,1.746348 0.03349,1.713398 -0.100482,1.746348 -0.16747,1.713399 -0.267953,1.713398 -0.401928,1.713398 -0.468916,1.680449 -0.569398,1.680448 -0.703375,1.614548 -0.770362,1.614549 -0.837351,1.548648 -0.971326,1.548649 -1.038315,1.482748 -1.105302,1.416849 -1.205785,1.416848 -1.306267,1.317999 -1.33976,1.285049 -1.440243,1.219149 -1.507231,1.153248 -1.574219,1.087349 -1.607713,1.021449 -1.708195,0.922599 -1.741689,0.88965 -1.775183,0.790799 -1.842171,0.724899 -1.875665,0.626049 -1.909159,0.56015 -1.909159,0.494249 -1.976147,0.3954 -1.976147,0.29655 -2.009641,0.230649 -2.009641,0.1318 -2.009641,0.03295 -2.009641,-0.03295 -0.50241,8.665842 -16.345081,-15.519435 18.019781,-14.102586 -0.50241,8.632892 z M 0,0 0,0 z m 80.419138,69.227881 0,0 z"
           id="path3912" />
      </g>
    </g>
    <text
       xml:space="preserve"
       style="font-size:18px;font-style:normal;font-weight:normal;line-height:125%;letter-spacing:0px;word-spacing:0px;fill:#202222;fill-opacity:1;stroke:none;font-family:Sans"
       x="127.87068"
       y="342.32645"
       id="text3775"
       sodipodi:linespacing="125%"><tspan
         sodipodi:role="line"
         id="tspan3777"
         x="127.87068"
         y="342.32645">R</tspan></text>
  </g>
</svg>
